<svg xmlns="http://www.w3.org/2000/svg" xml:space="preserve" viewBox="0 0 1366 1044"><path fill="#3599DB" d="M1288.128 186.028c-.377 10.43-.22 20.914-1.26 31.277-1.468 14.646-3.385 29.279-5.906 43.778-3.238 18.626-6.694 37.25-11.08 55.631-7.59 31.799-17.592 62.904-30.315 93.034-9.082 21.506-18.431 42.933-28.638 63.92-15.602 32.08-33.84 62.741-54.32 91.926-14.178 20.203-29.45 39.67-44.86 58.964-8.946 11.2-18.99 21.542-28.8 32.027-9.755 10.423-19.358 21.063-29.883 30.672-16.622 15.177-33.906 29.634-51.007 44.282-20.883 17.888-43.688 33.143-66.829 47.863-27.593 17.553-56.626 32.4-86.465 45.828-32.9 14.806-66.505 27.708-101.109 37.692-31.875 9.197-64.14 17.084-96.361 25.027-15.957 3.934-32.132 7.12-48.341 9.86-13.723 2.32-27.61 3.773-41.47 5.134-16.542 1.624-33.113 3.12-49.707 3.98-20.678 1.072-41.388 1.695-62.092 2.035-19.992.329-40.01.558-59.985-.109-18.092-.604-36.164-2.234-54.204-3.865-14.197-1.283-28.33-3.266-42.495-4.903-1.23-.143-2.492-.02-4.322-.02 5.268 6.688 10.183 12.67 14.823 18.86 18.824 25.11 32.627 52.507 38.642 83.607 1.854 9.589 1.207 17.915-6.651 24.606-10.71 9.12-27.957 4.634-32.462-5.942-6.282-14.752-13.984-28.663-24.504-40.657-8.003-9.123-16.747-17.812-26.202-25.398-16.956-13.606-34.172-27.015-52.215-39.112-35.213-23.608-73.666-40.242-115.003-50.046-13.206-3.133-26.308-6.682-37.894-14.15-8.851-5.704-12.001-14.649-13.202-24.476-2.69-22.02 8.895-35.946 26.119-47.283 14.384-9.468 29.698-16.416 46.224-20.926 9.144-2.496 18.208-5.341 27.44-7.45 13.9-3.177 27.937-5.755 41.878-8.76 10.761-2.32 21.412-5.174 32.208-7.303 12.61-2.486 25.348-4.314 37.987-6.665 13.247-2.464 26.425-5.302 39.677-7.737 2.111-.388 4.531.209 6.676.817 17.703 5.02 23.056 14.58 18.213 32.159-1.294 4.699-7.39 8.385-11.815 11.854-13.861 10.86-30.34 16.607-46.514 22.821-8.62 3.313-17.477 6.014-26.45 9.067 3.649 6.324 5.248 13.298-1.055 20.385 54.797 18.436 110.948 24.388 168.792 24.732 11.986.383 23.125.977 34.262.957 14.973-.026 29.946-.525 44.918-.821 6.216-.068 12.45.148 18.642-.265 11.63-.775 23.235-1.893 34.848-2.908 7.52-.657 15.046-1.283 22.55-2.106 11.215-1.229 22.452-2.356 33.608-4.014 11.104-1.65 22.149-3.747 33.164-5.928 12.565-2.488 25.118-5.073 37.586-7.998 19.097-4.48 38.286-8.702 57.124-14.115 20.77-5.968 41.33-12.758 61.716-19.942a692.589 692.589 0 0 0 48.622-19.24c16.709-7.35 33.486-14.817 49.291-23.877 22.305-12.785 44.077-26.584 65.441-40.897 15.462-10.359 30.047-22.059 44.721-33.547 8.154-6.383 15.874-13.358 23.457-20.423 10.324-9.622 20.842-19.115 30.36-29.504 17.006-18.562 33.843-37.328 49.819-56.775 27.216-33.127 50.267-69.086 70.578-106.86 15.774-29.34 30.092-59.319 40.81-90.86 7.74-22.777 15.062-45.742 21.345-68.955 4.335-16.02 7.025-32.534 9.63-48.957 2.564-16.172 4.119-32.505 6.045-48.776.234-1.972-.044-3.998.03-5.995.322-8.6 1.33-17.23.9-25.79-.881-17.582-2.049-35.181-4.07-52.66-.898-7.755-5.147-15.111-6.13-22.869-1.877-14.836-2.966-29.815-3.464-44.765-.262-7.881 10.526-17.823 20.578-19.01 8.813-1.04 17.993-.859 24.593 6.652 2.984 3.396 6.218 7.219 7.428 11.4 3.01 10.408 5.208 21.08 7.202 31.743 2.308 12.343 4.523 24.739 5.911 37.208 1.548 13.901 2.121 27.911 3.098 42.803.028 10.64.076 20.349.124 30.058z"/><path fill="#A6D2EF" d="M472.145 843.156c-14.546.34-29.519.84-44.492.865-11.137.02-22.276-.574-33.77-.854 25.708.01 51.772-.023 78.262-.011z"/><path fill="#E3F1FA" d="M1288.509 185.816c-.429-9.497-.477-19.206-.454-29.382.362 1.684.885 3.832.904 5.984.07 7.728-.032 15.458-.45 23.398z"/></svg>