<svg xmlns="http://www.w3.org/2000/svg" xml:space="preserve" viewBox="0 0 1955 1273"><path fill="#3598DB" d="M20.913 805.95c.302-22.567 3.947-44.648 8.818-66.65 5.849-26.413 14.72-51.753 25.294-76.552 13.595-31.884 30.18-62.175 49.541-90.91 13.048-19.367 26.03-38.807 39.889-57.59 11.82-16.02 24.514-31.435 37.43-46.6 13.783-16.18 28.022-31.994 42.54-47.521 14.071-15.05 28.148-30.19 43.306-44.11 22.302-20.479 45.006-40.606 68.576-59.597 24.524-19.758 49.848-38.604 75.625-56.705 23.801-16.713 48.433-32.287 73.148-47.641 15.975-9.925 32.636-18.776 49.21-27.699 17.444-9.391 34.873-18.888 52.808-27.269 24.927-11.648 50.037-23.005 75.585-33.193 30.124-12.015 60.44-23.785 91.33-33.584 35.54-11.273 71.674-20.764 107.794-30.079 21.996-5.672 44.39-9.888 66.726-14.121 15.529-2.944 31.254-4.863 46.907-7.135 14.378-2.087 28.731-4.487 43.178-5.922 15.933-1.582 31.953-2.35 47.948-3.235 17.993-.996 35.993-2.143 54.003-2.455 17.804-.308 35.636.03 53.435.669 15.624.56 31.22 1.917 46.826 2.944 9.646.635 19.31 1.096 28.927 2.029 11.07 1.074 22.097 2.595 33.145 3.9 8.773 1.038 17.565 1.925 26.32 3.096 9.854 1.318 19.675 2.887 29.512 4.335 8.223 1.211 16.463 2.307 24.665 3.637 7.544 1.224 15.103 2.44 22.558 4.1 21.66 4.824 43.398 9.379 64.864 14.968 21.13 5.502 42.207 11.427 62.862 18.47 23.606 8.05 46.92 17.055 69.98 26.574 14.702 6.069 28.86 13.534 42.991 20.891 19.362 10.08 38.028 21.346 54.554 35.766 10.297 8.983 20.79 17.812 30.388 27.507 13.113 13.243 24.222 28.14 32.998 44.694.918 1.731 2.65 3.191 4.304 4.348 19.558 13.68 39.379 26.995 58.684 41.02 9.377 6.812 18.048 14.66 26.62 22.498 10.16 9.287 20.222 18.731 29.693 28.71a310.368 310.368 0 0 1 41.031 53.95c10.162 16.912 18.602 34.64 23.893 53.605 3.048 10.925 4.528 22.333 6.112 33.608 1.187 8.455 2.442 17.116 1.86 25.56-1.309 18.966-3.324 37.91-5.814 56.76-3.816 28.888-11.914 56.776-22.04 84.007-6.92 18.613-14.617 36.966-22.677 55.12-6.901 15.544-14.16 31.004-22.425 45.853-13.391 24.06-27.38 47.806-41.81 71.257-8.783 14.273-18.4 28.098-28.497 41.478-10.358 13.724-21.29 27.085-32.822 39.836-15.014 16.603-30.486 32.837-46.492 48.483-10.533 10.297-22.174 19.5-33.647 28.787-13.304 10.769-26.67 21.508-40.548 31.51-18.43 13.284-37.08 26.314-56.199 38.574-18.043 11.57-36.576 22.435-55.334 32.814-19.104 10.571-38.383 20.966-58.237 30.006-28.1 12.796-56.48 25.115-85.324 36.106-34.768 13.248-70.026 25.253-105.293 37.142-46.15 15.558-93.133 28.335-140.443 39.818-23.285 5.652-46.772 10.57-70.321 15.004-21.197 3.99-42.578 7.04-63.925 10.182-17.488 2.573-35.025 4.858-52.583 6.906-9.483 1.106-19.05 1.574-28.59 2.108-19.29 1.082-38.587 2.01-57.88 3.007-6.1.316-12.195.787-18.298.954-15.095.414-30.194.96-45.292.954-15.764-.007-31.533-.447-47.29-.974-13.372-.447-26.752-1.005-40.09-2.025-17.855-1.365-35.677-3.176-53.505-4.888-13.241-1.271-26.515-2.348-39.691-4.125-17.004-2.294-33.964-4.98-50.872-7.903-17.663-3.054-35.322-6.224-52.839-10.012-20.834-4.505-41.655-9.202-62.223-14.773-22.592-6.12-45.182-12.5-67.242-20.273-27.455-9.673-54.632-20.262-81.428-31.635-20.843-8.846-41.26-18.86-61.253-29.506a583.983 583.983 0 0 1-75.094-47.657c-10.466-7.82-20.716-15.985-30.54-24.591-11.193-9.806-22.232-19.863-32.568-30.555-18.442-19.077-34.683-39.954-48.134-62.902-13.507-23.045-23.734-47.537-30.001-73.438-3.6-14.873-5.256-30.229-7.497-45.41-.792-5.365-.726-10.856-1.027-17.22-.014-9.65-.054-18.37-.093-27.09m1585.116-634.004 1.856.301c-.568-.48-1.136-.96-2.127-2.011-4.23-1.921-8.461-3.842-13.256-6.14-13.175-5.53-26.32-11.134-39.53-16.577-32.803-13.514-66.691-23.75-101.034-32.39-21.113-5.31-42.488-9.625-63.837-13.937-13.898-2.806-27.926-5.032-41.958-7.091-11.653-1.71-23.4-2.775-35.1-4.17-10.725-1.278-21.43-2.736-32.17-3.89-8.17-.878-16.377-1.42-24.57-2.083-16.216-1.315-32.42-2.85-48.656-3.837-12.891-.783-25.824-.884-39.34-1.841-9.486-.095-18.973-.267-28.459-.24-3.253.009-6.505.514-10.695.934-14.197.673-28.398 1.271-42.59 2.047-9.703.53-19.414 1.088-29.083 2.027-15.175 1.473-30.343 3.075-45.467 4.998-16.72 2.126-33.492 4.096-50.049 7.175-24.199 4.5-48.414 9.174-72.28 15.145-31.356 7.845-62.558 16.428-93.486 25.816-24.201 7.345-48.23 15.53-71.715 24.9-33.206 13.247-66.305 26.948-98.578 42.29-28.618 13.606-56.27 29.314-83.92 44.858-18.937 10.647-37.386 22.22-55.609 34.062-29.458 19.144-58.337 39.145-85.575 61.408-18.017 14.727-36.253 29.192-54.039 44.192-11.218 9.46-22.09 19.383-32.573 29.652-14.007 13.721-27.694 27.784-41.133 42.064a1270.4 1270.4 0 0 0-36.452 40.446c-11.372 13.172-22.74 26.411-33.145 40.34-15.041 20.135-29.777 40.548-43.584 61.54-11.73 17.832-22.525 36.344-32.716 55.109-14.035 25.843-24.69 53.182-32.918 81.437-6.607 22.692-10.731 45.883-12.051 69.43-1.082 19.289.267 38.525 3.74 57.652 4.782 26.337 13.79 51.087 27.435 73.956 16.806 28.171 37.363 53.423 62.488 74.718 11.343 9.614 22.73 19.19 34.407 28.393 25.449 20.058 53.383 36.25 81.961 51.303 14.06 7.407 28.48 14.187 43.016 20.617 18.258 8.077 36.642 15.923 55.276 23.075 14.166 5.436 28.734 9.872 43.256 14.32 18.252 5.591 36.487 11.353 55.004 15.93 25.348 6.264 50.932 11.585 76.459 17.109 13.32 2.882 26.674 5.708 40.121 7.89 18.696 3.033 37.455 5.752 56.258 8.023 18.764 2.267 37.603 3.954 56.432 5.634 15.098 1.347 30.219 2.529 45.353 3.363 12.51.689 25.055 1.093 37.582 1.04 27.757-.12 55.514-.552 83.269-.972 9.427-.143 18.85-.584 28.272-.983 5.595-.237 11.2-.47 16.769-1.032 12.206-1.232 24.387-2.714 36.588-4.011 9.927-1.056 19.925-1.603 29.79-3.06 18.35-2.712 36.657-5.737 54.922-8.973 21.598-3.827 43.227-7.577 64.668-12.173 20.877-4.476 41.696-9.399 62.251-15.16 37.236-10.435 74.452-21.026 111.307-32.715 29.633-9.4 58.969-19.874 87.976-31.064 25.785-9.948 51.122-21.127 76.3-32.55 15.002-6.806 29.52-14.766 43.887-22.863 19.612-11.055 39.402-21.934 58.148-34.348 23.806-15.765 47.058-32.45 69.77-49.76 18.783-14.317 36.85-29.654 54.444-45.42 12.094-10.839 22.92-23.106 34.143-34.897 4.865-5.113 9.54-10.447 13.883-16.009 9.617-12.318 19.583-24.43 28.291-37.376 14.864-22.096 29.562-44.363 43.015-67.328 10.594-18.084 19.829-37.045 28.537-56.132 9.78-21.435 19.004-43.186 27.16-65.282 8.91-24.135 16.062-48.896 19.61-74.513 1.75-12.629 4.091-25.239 4.81-37.934 1.25-22.1-.369-44.013-6.712-65.475a203.666 203.666 0 0 0-18.791-43.921c-9.687-16.847-20.898-32.721-34.57-46.657-12.994-13.243-26.182-26.298-39.333-39.387-1.982-1.974-4.02-2.87-6.92-.837-6.208 4.353-16.12 2.163-20.351-4.838-4.874-8.066-9.236-16.441-13.96-24.601-1.087-1.878-2.442-3.872-4.188-5.053-12.297-8.318-24.466-16.871-37.176-24.52-19.547-11.76-39.254-23.304-59.337-34.115-22.126-11.912-44.777-22.847-67.147-34.31-4.926-2.526-10.667-4.544-14.212-8.448-6.471-7.126-8.893-15.295-3.715-24.836 4.385-8.082 10.142-12.181 21.772-10.227 6.12 1.028 11.922 3.942 18.263 6.596 5.04 1.953 10.08 3.905 15.618 6.197z"/><path fill="#DAECF8" d="M20.522 806.149c.43 8.52.47 17.24.448 26.428-.36-2.007-.883-4.479-.917-6.957-.089-6.423.038-12.848.47-19.471z"/><path fill="#ADD5F0" d="M1166.608 78.556c-12.333.32-24.966.363-38.058.341 2.793-.343 6.045-.848 9.298-.857 9.486-.027 18.973.145 28.76.516z"/><path fill="#F6FAFD" d="M1590.213 165.453c.604-.364 1.405-.432 2.53-.74 4.554 1.68 8.784 3.602 13.053 6-.062.616-.164.755-.265.894-5.04-1.953-10.08-3.905-15.318-6.154z"/></svg>