<svg xmlns="http://www.w3.org/2000/svg" xml:space="preserve" viewBox="0 0 1879 299"><path fill="#AAD4F0" d="M1799.043 93.886c1.888.446 3.775.891 5.867 1.95.847.759 1.49.905 2.133 1.05.904.124 1.807.249 2.917 1.03 4.856 3.119 9.505 5.58 14.155 8.042 8.143 3.441 15.03 8.227 20.295 15.682 6.312 8.934 11.745 18.046 13.632 29.007 2.792 16.222.73 31.543-8.607 45.342-9.931 14.68-23.423 24.727-40.854 28.624-6.819 1.524-13.94 2.091-20.947 2.287a709.453 709.453 0 0 1-37.994.033c-14.855-.381-29.7-1.226-44.544-1.95-12.351-.601-24.695-1.337-37.044-1.978-19.604-1.018-39.21-1.983-58.814-3.017-11.683-.616-23.362-1.33-35.043-1.986-17.938-1.008-35.888-1.834-53.811-3.055-16.042-1.093-32.048-2.718-48.084-3.915a1025.747 1025.747 0 0 0-34.04-1.996c-19.343-.798-38.693-1.382-58.041-2.031-10.756-.361-21.513-.883-32.271-.97-51.589-.412-103.178-.665-154.766-1.047-36.423-.27-72.845-.656-109.268-.988-36.923-.335-73.845-.918-110.768-.927-34.59-.008-69.179.551-103.768.942-22.257.252-44.514.601-66.77 1.005-12.258.222-24.516.562-36.77 1.001-16.183.581-32.364 1.268-48.542 1.993-13.35.6-26.7 1.26-40.043 2.01-10.02.562-20.052 1.076-30.037 2.04-10.716 1.035-21.375 2.635-32.073 3.865-6.996.804-14.025 1.314-21.024 2.088-11.362 1.256-22.706 2.666-34.067 3.921-7 .774-14.023 1.329-21.026 2.073-12.026 1.279-24.04 2.665-36.066 3.937-10.092 1.068-20.21 1.899-30.287 3.092-9.54 1.13-19.031 2.661-28.56 3.893-8.582 1.11-17.2 1.938-25.776 3.095-10.964 1.48-21.893 3.215-32.85 4.747-8.234 1.15-16.514 1.99-24.728 3.263-13.798 2.139-27.544 4.618-41.342 6.753-10.14 1.57-20.34 2.743-30.493 4.23-10.13 1.485-20.235 3.147-30.352 4.721-9.157 1.425-18.354 2.627-27.463 4.306-11.93 2.2-23.784 4.813-35.686 7.17-10.007 1.983-20.04 3.833-30.055 5.782-9.052 1.762-18.025 4.208-27.158 5.194-9.368 1.012-18.887.625-28.34.834a19.845 19.845 0 0 1-4.492-.381c-1.138-.403-1.78-.468-2.421-.533-14.816-2.198-28.092-8.18-40.136-16.857-18.968-13.665-31.559-31.873-37.65-55.018-.215-1.48-.61-2.36-1.004-3.24-.059-.433-.118-.866.004-1.83-.215-1.41-.61-2.29-1.004-3.17-.059-.433-.118-.866.03-1.892-.207-2.43-.618-4.269-1.03-6.107-.059-.434-.118-.867.05-1.943.41-1.605.762-2.568.752-3.528-.196-18.703 3.684-36.41 12.671-52.922.757-1.391.881-3.126 1.3-4.702 0 0 .037.076.342-.01.755-1.054 1.206-2.022 1.657-2.99 0 0 .038.076.343-.01.755-1.054 1.206-2.022 1.657-2.99 0 0 .038.076.344-.012.762-1.06 1.218-2.034 1.674-3.007.462-.584.924-1.167 2.002-1.91 1.076-1.137 1.537-2.114 1.998-3.09 12.564-14.845 28.938-23.827 46.684-30.963 20.835-8.378 42.796-12.289 64.592-16.744 12.262-2.507 24.854-3.364 37.259-5.22 11.72-1.754 23.375-3.946 35.088-5.756 9.978-1.541 20.003-2.772 29.996-4.214 10.625-1.533 21.226-3.235 31.86-4.71a936.146 936.146 0 0 1 26.23-3.256c12.847-1.413 25.709-2.702 38.57-3.974 4.58-.453 9.177-.737 13.769-1.043 15.269-1.016 30.542-1.97 45.809-3.02 13.774-.947 27.54-2.034 41.314-2.974 15.434-1.054 30.874-2.03 46.314-3.007 11.012-.697 22.024-1.419 33.044-1.982 8.918-.455 17.844-.86 26.771-.992 28.423-.418 56.848-.647 85.27-1.052 15.26-.217 30.514-.813 45.773-.948 47.423-.418 94.847-.886 142.27-.961 28.924-.046 57.847.661 86.772.915 44.423.39 88.847.627 133.27 1.039 21.092.195 42.183.592 63.272.997 11.26.217 22.516.604 33.772.989 18.516.632 37.032 1.263 55.543 2.01 14.02.567 28.035 1.23 42.044 2.002 16.443.907 32.879 1.97 49.316 2.983 10.516.648 21.023 1.448 31.545 1.968 15.676.774 31.361 1.364 47.043 2.027 15.848.67 31.696 1.334 47.544 2 15.848.667 31.695 1.35 47.544 1.994 9.09.369 18.188.546 27.27 1.033 16.943.908 33.885 1.86 50.812 3.024 11.284.776 22.564 1.743 33.805 3 16.05 1.793 32.072 3.841 48.085 5.945 14.365 1.888 28.743 3.74 43.038 6.08a970.007 970.007 0 0 1 43.01 8.049c19.288 4.06 38.481 8.564 57.716 12.87 1.892.424 3.794.8 5.917 1.826.87.774 1.512.92 2.155 1.065 3.215.775 6.43 1.55 9.858 2.943.856.766 1.5.912 2.142 1.057z"/><path fill="#AAD4F0" d="M36.612 133.047c-.09 1.434-.215 3.169-.972 4.56-8.987 16.512-12.867 34.219-12.67 52.922.01.96-.343 1.923-.803 3.202-.572-4.353-1.754-9.176-.983-13.662 1.711-9.954 3.917-19.887 6.87-29.538 1.852-6.054 5.428-11.58 8.558-17.484zM1824.059 105.587c-4.594-2.09-9.243-4.552-13.955-7.358 4.592 2.1 9.245 4.544 13.955 7.358zM22.092 196.401c.487 1.437.898 3.276 1.055 5.38-.547-1.482-.839-3.23-1.055-5.38zM23.092 204.342c.47.538.864 1.418 1.03 2.502-.522-.584-.814-1.372-1.03-2.502zM24.092 209.342c.47.538.864 1.418 1.03 2.502-.522-.584-.814-1.372-1.03-2.502zM46.65 119.012c-.154.85-.615 1.827-1.42 2.875.14-.869.626-1.808 1.42-2.875zM42.65 124.011c-.149.848-.605 1.822-1.405 2.863.138-.867.618-1.802 1.406-2.863zM40.634 127.028c-.146.845-.597 1.813-1.39 2.848.133-.864.609-1.795 1.39-2.848zM38.634 130.028c-.146.845-.597 1.813-1.39 2.848.133-.864.609-1.795 1.39-2.848zM1786.93 89.599c-.53.141-1.173-.004-1.852-.432.556-.14 1.147.002 1.852.432zM1798.93 93.599c-.53.142-1.173-.004-1.852-.432.556-.14 1.147.002 1.852.432zM1806.93 96.599c-.53.142-1.173-.004-1.852-.432.556-.14 1.147.002 1.852.432zM103.075 284.405c.523-.226 1.165-.16 1.866.167-.544.216-1.146.17-1.866-.167z"/></svg>