<svg xmlns="http://www.w3.org/2000/svg" xml:space="preserve" viewBox="0 0 1715 102"><path fill="#3699DB" d="M148.808 51.295c7.138 5.13 13.894 10.198 20.941 14.822 6.568 4.31 13.83 8.077 21.721 7.62 6.82-.394 13.892-2.16 20.17-4.891 9.558-4.157 18.46-9.802 27.762-14.578 14.63-7.51 29.5-14.351 46.655-12.248 8.32 1.02 15.283 5.21 21.662 10.252 10.343 8.176 20.647 16.366 33.348 20.66 17.416 5.89 34.798 5.183 51.783-1.45 11.208-4.377 22.191-9.38 33.073-14.527 15.875-7.51 32.649-10.156 49.74-7.659 9.517 1.39 18.9 5.122 27.795 9.04 15.756 6.939 31.47 14.062 48.685 16.004 8.466.956 17.232-.103 25.805-.88 16.324-1.478 30.124-9.943 44.623-16.569 12.387-5.66 25.073-10.72 37.851-15.437 4.057-1.497 8.829-1.268 13.287-1.413 6.383-.208 12.955-.97 19.128.192 9.847 1.855 19.532 4.782 29.104 7.827 17.232 5.483 34.138 12.079 51.546 16.888 12.698 3.507 25.823 3.292 39.194 1.48 18.832-2.554 35.968-9.702 53.553-15.938 8.838-3.134 17.975-6.061 27.215-7.282 15.982-2.113 31.674 1.18 47.231 4.983 15.677 3.832 31.374 7.756 47.263 10.452 6.017 1.02 12.638-1.044 18.914-2.11 24.215-4.109 45.995-15.733 69.31-22.656 12.662-3.76 25.36-6.984 38.737-5.874 6.087.504 12.574-.143 18.17 1.79 9.98 3.449 19.805 7.783 29.001 12.974 13.94 7.87 27.793 14.848 44.216 16.476 13.547 1.343 26.53-.535 39.128-4.268 16.62-4.924 32.649-11.819 49.2-17.014 7.554-2.37 15.754-2.67 23.652-3.966 12.279-2.017 23.938 1.814 35.633 4.241 7.689 1.596 14.884 5.437 22.454 7.775 12.441 3.843 24.814 8.528 37.58 10.507 10.599 1.644 21.976 1.29 32.559-.64 19.885-3.63 39.346-9.534 59.176-13.54 14.666-2.961 29.166-1.666 43.298 4.483 13.178 5.734 26.643 11.123 40.445 15.028 16.795 4.753 33.945 6.583 51.67 3.456 16.409-2.894 31.845-7.524 46.28-15.859 1.99-1.15 5.631-1.981 7.775 1.688 2.212 3.786-.057 5.203-2.685 6.964-18.046 12.092-37.883 19.178-59.402 21.987-26.779 3.497-51.642-3.068-75.955-13.437a350.044 350.044 0 0 0-28.69-10.766c-8.466-2.763-17-.156-25.255 1.667-15.867 3.505-31.584 7.688-47.374 11.544-17.925 4.379-35.953 3.892-53.618-.687-14.915-3.866-29.325-9.652-44.188-13.76-11.58-3.201-23.412-6.002-35.317-7.362-10.466-1.195-20.635 2.552-30.49 6.148-11.763 4.294-23.43 8.854-35.22 13.073-18.162 6.498-37.088 7.8-56.044 6.302-16.917-1.337-31.972-8.786-46.218-17.664-13.08-8.15-26.567-15.245-42.567-14.043-14.688 1.104-28.887 4.627-42.76 9.745-16.469 6.077-33.017 12.01-49.78 17.202-20.493 6.346-41.138 4.848-61.685-.552-13.844-3.638-27.715-7.225-41.696-10.276-15.107-3.296-29.446.284-43.701 5.488-15.564 5.682-31.281 11.105-47.257 15.444-13.234 3.595-26.928 3.117-40.71 2.116-22.477-1.633-42.638-10.395-63.168-18.23-16.259-6.203-32.843-11.094-50.392-8.823-7.585.981-15.147 3.627-22.235 6.652-14.82 6.325-29.132 13.853-43.998 20.057-17.876 7.46-36.584 9.6-55.948 7.264-16.48-1.989-31.374-8.187-46.31-14.843-9.756-4.348-19.809-8.667-30.181-10.82-10.246-2.126-21.012-.868-30.952 3.433-14.488 6.269-28.767 13.048-43.4 18.951-17.86 7.206-36.23 7.77-54.972 3.126-17.098-4.237-30.382-14.738-43.666-25.308-9.46-7.527-19.867-10.473-31.109-5.653-12.351 5.297-24.137 11.897-36.364 17.504-9.116 4.18-18.321 8.416-27.888 11.291-10.343 3.109-20.735 1.222-30.665-3.145-11.984-5.271-21.996-13.345-31.825-21.738-3.112-2.657-6.446-5.053-9.6-7.664-11.081-9.174-19.03-5.692-27.721 1.197-8.245 6.535-15.879 13.837-23.874 20.694-11.108 9.526-24.82 13.806-39.243 5.814-8.746-4.846-14.248-12.01-16.118-21.94-.377-2.006-1.24-3.985-2.213-5.798-.971-1.813-4.682-3.42-1.592-5.424 1.748-1.134 5.683-.655 7.577.64 2.36 1.614 4.06 4.628 5.288 7.376 2.85 6.38 6.078 12.344 12.452 15.861 8.948 4.939 16.864 1.865 24.01-3.789 7.35-5.815 14.267-12.175 21.401-18.264 6.086-5.195 12.22-9.996 20.225-12.451 7.971-2.445 14.964-.659 21.45 3.108 5.445 3.163 10.068 7.74 15.31 11.95z"/></svg>